<svg width="13" height="13" viewBox="0 0 13 13" fill="none" xmlns="http://www.w3.org/2000/svg">
<path d="M10.2917 3.79167V1.625H9.20833V2.70833C9.20833 4.20333 7.995 5.41667 6.5 5.41667C5.005 5.41667 3.79167 4.20333 3.79167 2.70833V1.625H2.70833V3.79167C2.70833 4.68542 1.97708 5.41667 1.08333 5.41667V6.5C1.69542 6.5 2.25333 6.28875 2.70833 5.94208V8.125H1.08333V9.20833H2.70833V11.375H3.79167V9.20833H9.20833V11.375H10.2917V9.20833H11.9167V8.125H10.2917V5.94208C10.7467 6.28333 11.3046 6.5 11.9167 6.5V5.41667C11.0229 5.41667 10.2917 4.68542 10.2917 3.79167ZM3.79167 5.35708C4.37299 5.95234 5.13468 6.3389 5.95833 6.45667V8.125H3.79167V5.35708ZM7.04167 8.125V6.45667C7.88667 6.3375 8.63958 5.93667 9.20833 5.35708V8.125H7.04167Z" fill="#757575"/>
</svg>
