<svg width="13" height="13" viewBox="0 0 13 13" fill="none" xmlns="http://www.w3.org/2000/svg">
<path d="M5.95833 1.08325V2.2045C5.00498 2.3254 4.11887 2.75976 3.43935 3.43928C2.75984 4.11879 2.32547 5.00491 2.20458 5.95825H1.08333V7.04159H2.20458C2.32547 7.99493 2.75984 8.88104 3.43935 9.56056C4.11887 10.2401 5.00498 10.6744 5.95833 10.7953V11.9166H7.04166V10.7953C7.99501 10.6744 8.88112 10.2401 9.56064 9.56056C10.2402 8.88104 10.6745 7.99493 10.7954 7.04159H11.9167V5.95825H10.7954C10.6745 5.00491 10.2402 4.11879 9.56064 3.43928C8.88112 2.75976 7.99501 2.3254 7.04166 2.2045V1.08325M5.95833 3.29325V4.33325H7.04166V3.29867C8.39583 3.52075 9.47916 4.60409 9.70666 5.95825H8.66666V7.04159H9.70125C9.47916 8.39575 8.39583 9.47909 7.04166 9.70659V8.66659H5.95833V9.70117C4.60416 9.47909 3.52083 8.39575 3.29333 7.04159H4.33333V5.95825H3.29875C3.52083 4.60409 4.60416 3.52075 5.95833 3.29325ZM6.5 5.95825C6.35634 5.95825 6.21856 6.01532 6.11698 6.1169C6.0154 6.21848 5.95833 6.35626 5.95833 6.49992C5.95833 6.64358 6.0154 6.78135 6.11698 6.88294C6.21856 6.98452 6.35634 7.04159 6.5 7.04159C6.64365 7.04159 6.78143 6.98452 6.88301 6.88294C6.98459 6.78135 7.04166 6.64358 7.04166 6.49992C7.04166 6.35626 6.98459 6.21848 6.88301 6.1169C6.78143 6.01532 6.64365 5.95825 6.5 5.95825Z" fill="#757575"/>
</svg>
