<svg width="10" height="10" viewBox="0 0 10 10" fill="none" xmlns="http://www.w3.org/2000/svg">
<g clip-path="url(#clip0_169_1704)">
<path d="M5 4C5.85 4 6.53 3.325 6.53 2.5C6.53 1.675 5.85 1 5 1C4.15 1 3.47 1.675 3.47 2.5C3.47 3.325 4.15 4 5 4ZM5 5C3.6 5 2.47 3.88 2.47 2.5C2.47 1.12 3.6 0 5 0C6.4 0 7.53 1.12 7.53 2.5C7.53 3.88 6.4 5 5 5ZM1.5 9H8.5V8.335C8.5 7.46 7.345 6.555 5 6.555C2.655 6.555 1.5 7.46 1.5 8.335V9ZM5 5.555C8.33 5.555 9.5 7.22 9.5 8.335V10H0.5V8.335C0.5 7.22 1.67 5.555 5 5.555Z" fill="#757575"/>
</g>
<defs>
<clipPath id="clip0_169_1704">
<rect width="10" height="10" fill="white"/>
</clipPath>
</defs>
</svg>
